<?xml version="1.0" standalone="no"?>
<!DOCTYPE svg PUBLIC "-//W3C//DTD SVG 20010904//EN"
 "http://www.w3.org/TR/2001/REC-SVG-20010904/DTD/svg10.dtd">
<svg version="1.0" xmlns="http://www.w3.org/2000/svg"
 width="225.000000pt" height="225.000000pt" viewBox="0 0 225.000000 225.000000"
 preserveAspectRatio="xMidYMid meet">
<metadata>
Created by potrace 1.15, written by Peter Selinger 2001-2017
</metadata>
<g transform="translate(0.000000,225.000000) scale(0.100000,-0.100000)"
fill="#000000" stroke="none">
<path d="M840 2231 c-70 -37 -75 -52 -78 -247 l-3 -174 -287 -2 -287 -3 0 -30
c0 -29 2 -30 53 -33 l52 -3 0 -782 c0 -735 2 -784 19 -822 23 -51 89 -111 138
-124 52 -15 1304 -15 1356 0 49 13 115 73 138 124 17 38 19 87 19 822 l0 782
53 3 c50 3 52 4 52 33 l0 30 -287 3 -287 2 -3 174 c-3 195 -8 210 -78 247 -31
17 -60 19 -285 19 -225 0 -254 -2 -285 -19z m533 -62 c40 -18 47 -49 47 -209
l0 -150 -295 0 -295 0 0 150 c0 157 7 191 44 208 30 15 468 15 499 1z m515
-1211 l-3 -783 -24 -34 c-13 -18 -42 -42 -65 -52 -39 -17 -78 -19 -671 -19
l-631 0 -44 22 c-24 13 -53 36 -64 51 -21 28 -21 39 -24 813 l-2 784 765 0
765 0 -2 -782z"/>
<path d="M757 1423 c-4 -3 -7 -213 -7 -465 0 -415 2 -459 16 -465 9 -3 24 -2
33 4 14 9 16 59 19 458 1 322 -1 452 -9 461 -12 15 -41 19 -52 7z"/>
<path d="M1095 1418 c-3 -7 -4 -218 -3 -468 l3 -455 30 0 30 0 0 465 0 465
-28 3 c-16 2 -29 -2 -32 -10z"/>
<path d="M1442 1418 c-9 -9 -12 -117 -12 -459 0 -475 0 -476 47 -467 17 3 18
29 18 468 0 458 0 465 -20 468 -11 1 -26 -3 -33 -10z"/>
</g>
</svg>
